<?xml version="1.0" encoding="UTF-8" standalone="no"?>
<svg
   xmlns:dc="http://purl.org/dc/elements/1.1/"
   xmlns:cc="http://creativecommons.org/ns#"
   xmlns:rdf="http://www.w3.org/1999/02/22-rdf-syntax-ns#"
   xmlns:svg="http://www.w3.org/2000/svg"
   xmlns="http://www.w3.org/2000/svg"
   xmlns:sodipodi="http://sodipodi.sourceforge.net/DTD/sodipodi-0.dtd"
   xmlns:inkscape="http://www.inkscape.org/namespaces/inkscape"
   inkscape:version="1.0 (4035a4fb49, 2020-05-01)"
   sodipodi:docname="icon-adv-1.svg"
   id="svg25"
   version="1.1"
   fill="none"
   viewBox="0 0 95 95"
   height="95"
   width="95">
  <metadata
     id="metadata31">
    <rdf:RDF>
      <cc:Work
         rdf:about="">
        <dc:format>image/svg+xml</dc:format>
        <dc:type
           rdf:resource="http://purl.org/dc/dcmitype/StillImage" />
        <dc:title></dc:title>
      </cc:Work>
    </rdf:RDF>
  </metadata>
  <defs
     id="defs29" />
  <sodipodi:namedview
     inkscape:current-layer="svg25"
     inkscape:window-maximized="1"
     inkscape:window-y="-8"
     inkscape:window-x="-8"
     inkscape:cy="38.245317"
     inkscape:cx="83.297931"
     inkscape:zoom="9.0425532"
     showgrid="false"
     id="namedview27"
     inkscape:window-height="1017"
     inkscape:window-width="1920"
     inkscape:pageshadow="2"
     inkscape:pageopacity="0"
     guidetolerance="10"
     gridtolerance="10"
     objecttolerance="10"
     borderopacity="1"
     bordercolor="#666666"
     pagecolor="#ffffff" />
  <mask
     height="53"
     width="94"
     y="41"
     x="0"
     maskUnits="userSpaceOnUse"
     mask-type="alpha"
     id="mask0">
    <path
       id="path6"
       fill="#000000"
       d="m 93.2863,72.5522 c 0,-3.1191 -2.5375,-5.6566 -5.6566,-5.6566 -1.1649,0 -2.2487,0.3539 -3.1494,0.9599 -0.7769,-2.1976 -2.8753,-3.7766 -5.3355,-3.7766 -1.1621,0 -2.2433,0.3523 -3.1428,0.9554 -0.7712,-2.2076 -2.8747,-3.7956 -5.3422,-3.7956 -1.0295,0 -1.9958,0.2767 -2.8283,0.7592 v -6.4674 h 8.9807 c 3.8989,0 7.0707,-3.1719 7.0707,-7.0708 0,-3.8989 -3.1718,-7.0708 -7.0707,-7.0708 H 57.9568 c -3.8989,0 -7.0708,3.1719 -7.0708,7.0708 0,3.406 2.4208,6.257 5.6323,6.9233 v 12.8439 1.4945 l -2.8193,0.0554 c -2.6137,0.0068 -4.816,1.7958 -5.4546,4.2116 H 5.18523 c -1.2997,0 -2.35692,-1.0572 -2.35692,-2.3569 V 42.6147 H 0 v 29.0168 c 0,2.8592 2.32619,5.1852 5.18523,5.1852 H 48.0541 l -0.0215,10.7781 3.0706,5.6668 2.4867,-1.3474 -2.7275,-5.0336 0.0228,-11.4471 c 0,-1.5596 1.2688,-2.8283 2.8284,-2.8283 l 2.8047,-0.0547 v 12.7291 h 2.8283 V 72.4954 68.2273 52.7659 c 0,-1.5595 1.2688,-2.8283 2.8283,-2.8283 1.5595,0 2.8283,1.2688 2.8283,2.8283 v 14.1298 9.911 h 2.8283 v -9.911 c 0,-1.5595 1.2688,-2.8283 2.8283,-2.8283 1.5596,0 2.8284,1.2688 2.8284,2.8283 v 2.8402 7.0708 h 2.8283 v -7.0708 c 0,-1.5595 1.2687,-2.8283 2.8283,-2.8283 1.5595,0 2.8283,1.2688 2.8283,2.8283 v 2.8166 4.2544 h 2.8283 v -4.2544 c 0,-1.5595 1.2688,-2.8283 2.8283,-2.8283 1.5595,0 2.8283,1.2688 2.8283,2.8317 l 0.0471,20.0356 2.8284,-0.0066 z M 62.1749,47.1091 c -3.0144,0 -5.485,2.3703 -5.6476,5.3447 -1.6379,-0.5881 -2.813,-2.1561 -2.813,-3.9939 0,-2.3394 1.9033,-4.2425 4.2425,-4.2425 h 18.8554 c 2.3392,0 4.2424,1.9031 4.2424,4.2425 0,2.3394 -1.9032,4.2424 -4.2424,4.2424 H 67.83 c -0.0343,-3.0898 -2.5573,-5.5932 -5.6551,-5.5932 z" />
  </mask>
  <g
     transform="translate(0.88470592,0.77411768)"
     id="g55">
    <path
       d="M 21.1887,10.2895 H 18.384 V 7.46118 h 2.8047 z m -5.633,0 H 12.7274 V 7.46118 h 2.8283 z m -5.65665,0 H 7.07074 V 7.46118 h 2.82831 z"
       fill="#000000"
       id="path2" />
    <path
       d="m 93.2863,72.5522 c 0,-3.1191 -2.5375,-5.6566 -5.6566,-5.6566 -1.1649,0 -2.2487,0.3539 -3.1494,0.9599 -0.7769,-2.1976 -2.8753,-3.7766 -5.3355,-3.7766 -1.1621,0 -2.2433,0.3523 -3.1428,0.9554 -0.7712,-2.2076 -2.8747,-3.7956 -5.3422,-3.7956 -1.0295,0 -1.9958,0.2767 -2.8283,0.7592 v -6.4674 h 8.9807 c 3.8989,0 7.0707,-3.1719 7.0707,-7.0708 0,-3.8989 -3.1718,-7.0708 -7.0707,-7.0708 H 57.9568 c -3.8989,0 -7.0708,3.1719 -7.0708,7.0708 0,3.406 2.4208,6.257 5.6323,6.9233 v 12.8439 1.4945 l -2.8193,0.0554 c -2.6137,0.0068 -4.816,1.7958 -5.4546,4.2116 H 5.18523 c -1.2997,0 -2.35692,-1.0572 -2.35692,-2.3569 V 42.6147 H 0 v 29.0168 c 0,2.8592 2.32619,5.1852 5.18523,5.1852 H 48.0541 l -0.0215,10.7781 3.0706,5.6668 2.4867,-1.3474 -2.7275,-5.0336 0.0228,-11.4471 c 0,-1.5596 1.2688,-2.8283 2.8284,-2.8283 l 2.8047,-0.0547 v 12.7291 h 2.8283 V 72.4954 68.2273 52.7659 c 0,-1.5595 1.2688,-2.8283 2.8283,-2.8283 1.5595,0 2.8283,1.2688 2.8283,2.8283 v 14.1298 9.911 h 2.8283 v -9.911 c 0,-1.5595 1.2688,-2.8283 2.8283,-2.8283 1.5596,0 2.8284,1.2688 2.8284,2.8283 v 2.8402 7.0708 h 2.8283 v -7.0708 c 0,-1.5595 1.2687,-2.8283 2.8283,-2.8283 1.5595,0 2.8283,1.2688 2.8283,2.8283 v 2.8166 4.2544 h 2.8283 v -4.2544 c 0,-1.5595 1.2688,-2.8283 2.8283,-2.8283 1.5595,0 2.8283,1.2688 2.8283,2.8317 l 0.0471,20.0356 2.8284,-0.0066 z M 62.1749,47.1091 c -3.0144,0 -5.485,2.3703 -5.6476,5.3447 -1.6379,-0.5881 -2.813,-2.1561 -2.813,-3.9939 0,-2.3394 1.9033,-4.2425 4.2425,-4.2425 h 18.8554 c 2.3392,0 4.2424,1.9031 4.2424,4.2425 0,2.3394 -1.9032,4.2424 -4.2424,4.2424 H 67.83 c -0.0343,-3.0898 -2.5573,-5.5932 -5.6551,-5.5932 z"
       fill="#000000"
       id="path4" />
    <g
       mask="url(#mask0)"
       id="g11">
      <rect
         x="48"
         y="40.4729"
         width="51"
         height="58"
         fill="#f58971"
         id="rect9" />
    </g>
    <path
       d="M 2.82831,17.4544 H 90.4823 V 65.524 h 2.8283 V 5.65813 c 0,-2.85923 -2.326,-5.18523 -5.1852,-5.18523 H 5.18523 C 2.326,0.4729 0,2.7989 0,5.65813 V 39.6921 h 2.82831 z m 0,-11.79627 c 0,-1.2997 1.05722,-2.35692 2.35692,-2.35692 H 88.1254 c 1.2997,0 2.3569,1.05722 2.3569,2.35692 V 14.6263 H 2.82831 Z"
       fill="#000000"
       id="path13" />
    <path
       d="M 52.3002,23.0994 H 69.27 v 2.8283 H 52.3002 Z"
       fill="#f58971"
       id="path15" />
    <path
       d="m 52.3002,28.5791 h 28.2831 v 2.8283 H 52.3002 Z"
       fill="#f58971"
       id="path17" />
    <path
       d="m 66.4417,34.356 h 2.8911 v 2.8283 h -2.8911 z"
       fill="#f58971"
       id="path19" />
    <path
       d="m 52.3002,34.356 h 11.3132 v 2.8283 H 52.3002 Z"
       fill="#f58971"
       id="path21" />
    <path
       d="m 8.25827,49.2912 2.48153,-3.8378 2.1341,23.514 h 28.0989 l 2.0327,-23.5076 2.4526,3.771 2.3708,-1.542 -4.4274,-6.8079 0.0909,-1.0512 H 36.768 V 29.4001 l 4.01,0.6682 0.4651,-2.7899 -33.93967,-5.6566 -0.46516,2.7899 15.78823,2.6314 v 3.0327 H 7.07075 v 2.8283 H 22.6265 v 6.9256 H 10.2294 l 0.0958,1.0563 -4.44196,6.8696 z m 30.95753,-6.6332 -3.11,4.3901 -17.9965,0.0589 -3.447,-4.4488 h 24.5535 z m -23.7585,23.481 -1.8335,-20.2037 3.1024,4.0045 20.8456,-0.0681 2.5213,-3.5589 -1.7145,19.8264 H 15.4573 Z M 33.9397,39.8297 H 31.1114 V 28.4573 l 2.8283,0.4714 z m -8.4849,-12.3152 2.8283,0.4714 v 11.8438 h -2.8283 z"
       fill="#000000"
       id="path23" />
  </g>
</svg>
