<?xml version="1.0" encoding="UTF-8" standalone="no"?>
<svg
   xmlns:dc="http://purl.org/dc/elements/1.1/"
   xmlns:cc="http://creativecommons.org/ns#"
   xmlns:rdf="http://www.w3.org/1999/02/22-rdf-syntax-ns#"
   xmlns:svg="http://www.w3.org/2000/svg"
   xmlns="http://www.w3.org/2000/svg"
   xmlns:sodipodi="http://sodipodi.sourceforge.net/DTD/sodipodi-0.dtd"
   xmlns:inkscape="http://www.inkscape.org/namespaces/inkscape"
   inkscape:version="1.0 (4035a4fb49, 2020-05-01)"
   sodipodi:docname="icon-adv-3.svg"
   id="svg11"
   version="1.1"
   fill="none"
   viewBox="0 0 95 95"
   height="95"
   width="95">
  <metadata
     id="metadata17">
    <rdf:RDF>
      <cc:Work
         rdf:about="">
        <dc:format>image/svg+xml</dc:format>
        <dc:type
           rdf:resource="http://purl.org/dc/dcmitype/StillImage" />
        <dc:title></dc:title>
      </cc:Work>
    </rdf:RDF>
  </metadata>
  <defs
     id="defs15" />
  <sodipodi:namedview
     inkscape:current-layer="svg11"
     inkscape:window-maximized="1"
     inkscape:window-y="-8"
     inkscape:window-x="-8"
     inkscape:cy="40.757362"
     inkscape:cx="88.246257"
     inkscape:zoom="6.753267"
     showgrid="false"
     id="namedview13"
     inkscape:window-height="1017"
     inkscape:window-width="1920"
     inkscape:pageshadow="2"
     inkscape:pageopacity="0"
     guidetolerance="10"
     gridtolerance="10"
     objecttolerance="10"
     borderopacity="1"
     bordercolor="#666666"
     pagecolor="#ffffff" />
  <mask
     height="89"
     width="94"
     y="0"
     x="0"
     maskUnits="userSpaceOnUse"
     mask-type="alpha"
     id="mask0">
    <path
       id="path4"
       fill="#000000"
       d="M 89.047,26.9977 H 73.2195 c -2.7312,0 -4.9534,2.2233 -4.9534,4.9562 V 50.1711 H 62.346 c 0.329,-1.1961 0.451,-2.6068 0.371,-4.2485 v -2e-4 c -0.1285,-6.9379 -1.3875,-12.7851 -3.7421,-17.3792 -1.8284,-3.5669 -3.9621,-5.7054 -5.7931,-6.9838 2.1491,-2.2095 3.3916,-5.3528 3.3916,-8.978 0,-6.52262 -5.2032,-11.828959 -11.5985,-11.828959 -6.3954,0 -11.5985,5.306339 -11.5985,11.828959 0,0.7552 0.6121,1.3672 1.3672,1.3672 h 0.9289 c -0.0855,0.5158 -0.1311,1.0416 -0.1311,1.5755 0,4.5967 3.2846,8.4385 7.6271,9.2994 -0.4551,1.6903 -0.6814,3.6832 -0.6805,5.9473 l -3.4099,2.9329 -8.297,0.671 -9.5709,-3.1638 c -0.8772,-0.2917 -1.8714,-0.6213 -2.734,7e-4 -0.85,0.6134 -0.85,1.6873 -0.85,2.04 v 7.1158 c 0,0.7552 0.6121,1.3672 1.3671,1.3672 h 1.6277 l -2.4965,8.6268 c -0.2098,0.7251 0.208,1.4835 0.9334,1.6933 0.7257,0.2109 1.4835,-0.208 1.6935,-0.9332 l 2.7165,-9.3869 h 3.8868 c -4.8344,14.7423 -2.0759,24.5828 2.164,34.5416 H 27.061 L 16.8248,64.8308 18.9893,57.3532 c 0.21,-0.7254 -0.2078,-1.4835 -0.9331,-1.6933 -0.7254,-0.2099 -1.4835,0.208 -1.6935,0.9331 l -2.0703,7.1526 C 7.88922,63.6388 2.16161,68.0535 0.701994,74.4051 0.53301,75.1408 0.992203,75.8744 1.72775,76.0436 l 1.94086,0.4466 c -0.49583,5.1501 2.89571,10.0091 8.06809,11.1996 0.7855,0.181 1.5777,0.2704 2.3645,0.2704 1.9403,0 3.8465,-0.544 5.5325,-1.6007 1.9788,-1.24 3.4532,-3.0629 4.2511,-5.2172 l 1.5314,0.3523 c 0.4563,0.1056 0.8891,0.159 1.3215,-0.0738 0.4023,-0.2166 0.6697,-0.6076 0.77,-1.0489 0.0962,-0.4475 0.1695,-0.9023 0.2203,-1.3614 h 28.594 c 0.9144,5.6852 5.7515,9.9707 11.5285,9.9707 5.777,0 10.6143,-4.2855 11.5287,-9.9707 h 1.0434 c 0,0 0.2071,0.0024 0.2543,0.0024 0.391,0 0.9558,-0.0434 1.4195,-0.5151 0.2321,-0.2361 0.5044,-0.6585 0.4835,-1.3295 -0.0385,-1.2839 -0.2312,-2.5244 -0.56,-3.7034 1.089,-6.6114 0.0412,-10.6381 -1.5121,-13.7893 0.982,-0.6437 1.6331,-1.7528 1.6331,-3.0128 v -3.7576 h 6.9058 c 2.7312,0 4.9534,-2.2232 4.9534,-4.9561 V 31.9537 c 4e-4,-2.7327 -2.2216,-4.956 -4.9531,-4.956 z M 18.1818,84.0429 c -1.7502,1.0968 -3.821,1.4456 -5.8314,0.9827 h -10e-5 C 8.6501,84.174 6.18151,80.781 6.36143,77.1122 L 21.1914,80.5254 C 20.5778,81.97 19.5397,83.192 18.1818,84.0429 Z M 25.0228,78.5986 3.75575,73.7048 C 5.39692,69.2105 9.81349,66.2355 14.6411,66.4915 l 10.4182,11.6486 c -0.0091,0.1537 -0.0212,0.3064 -0.0365,0.4585 z m 20.651,-23.8247 c -0.3969,1.0467 -0.3969,2.3372 -0.3969,4.1235 v 5.1592 h -5.0063 v -7.078 c 0,-8.0023 4.3674,-9.4284 6.3274,-9.6637 h 13.4037 c -0.0539,1.8162 -0.4637,3.1072 -1.2417,3.9266 -0.9068,0.9548 -2.4582,1.42 -4.7435,1.4222 l -4.9074,0.0051 c -1.75,2e-4 -2.9058,0.7082 -3.4353,2.1051 z m -0.3969,12.0169 v 3.2645 c -0.0124,0 -0.0251,0 -0.0383,0 h -9.7112 c 0.1092,-1.0125 0.4246,-1.796 0.9425,-2.3381 0.7703,-0.8061 1.8553,-0.9264 2.4336,-0.9264 z M 59.9414,44.5807 H 47.5078 c -0.4993,-1.5712 -0.9444,-3.2916 -1.3105,-5.0599 l 3.7802,-2.4536 c 2.0635,-1.3401 3.1371,-3.2335 2.9453,-5.1952 -0.1699,-1.7388 -1.3521,-3.2922 -3.0117,-3.957 -1.5155,-0.607 -3.1469,-0.4163 -4.5886,0.5055 0.1188,-1.3077 0.3402,-2.4751 0.6603,-3.4661 0.5827,-0.0601 1.1615,-0.1741 1.7299,-0.3412 1.157,-0.2687 2.2262,-0.6969 3.1914,-1.2648 2.6332,1.5732 8.4246,6.6759 9.0373,21.2323 z M 36.2108,11.2144 c 0.6448,-4.36849 4.3293,-7.7274 8.7641,-7.7274 4.8876,0 8.8641,4.07988 8.8641,9.0945 0,4.0786 -1.9558,7.3659 -5.1095,8.8126 v -7.1938 c 0,-1.2456 -0.4767,-2.7736 -2.7469,-2.9803 -0.0412,-0.0038 -0.0826,-0.0056 -0.124,-0.0056 z m 2.0652,4.3099 c 0,-0.5396 0.0614,-1.0666 0.1823,-1.5756 h 7.3332 c 0.0844,0.0091 0.146,0.019 0.1902,0.0279 0.0071,0.0507 0.0133,0.1236 0.0133,0.2237 v 7.9982 c -0.3258,0.048 -0.6535,0.0722 -0.9811,0.0724 -0.0031,0 -0.0062,0 -0.0091,0 C 41.294,22.2674 38.276,19.2423 38.276,15.5243 Z m -1.7724,21.1313 3.2382,-0.262 c 0.2886,-0.0231 0.5622,-0.1374 0.7819,-0.3261 l 5.8442,-5.0267 10e-4,-9e-4 c 0.5651,-0.4869 1.1683,-0.7367 1.7556,-0.7367 0.2614,0 0.5197,0.0496 0.77,0.1499 0.7224,0.2893 1.2354,0.9506 1.3072,1.6845 0.0903,0.9237 -0.5182,1.86 -1.7128,2.6358 l -6.5124,4.227 h -5.4726 v -2.3448 z m -5.7779,0.4674 3.0435,-0.2461 v 2.1238 h -3.5366 c -0.4585,0 -0.5703,-0.3809 -0.5834,-0.7005 -0.0075,-0.1812 0.0097,-1.0897 1.0765,-1.1772 z m -3.2359,-0.9439 c -0.4118,0.6752 -0.6041,1.465 -0.5726,2.233 0.0082,0.1989 0.0336,0.3905 0.0689,0.5772 0,0.0038 -0.0022,0.0076 -0.0014,0.0113 h -6.6238 v -5.1904 l 7.1342,2.3583 c -0.0022,0.0036 -0.0033,0.0071 -0.0053,0.0106 z m 2.7504,5.5558 H 42.381 c 0.2642,0 0.5228,-0.0765 0.7443,-0.2203 l 0.6189,-0.4018 c 0.2977,1.3158 0.6368,2.5962 1.0061,3.8055 -2.7884,0.8231 -7.2142,3.4829 -7.2142,12.0601 v 7.2153 c -0.9592,0.1936 -2.094,0.6409 -3.0432,1.6342 -1.0006,1.0471 -1.5721,2.4659 -1.7092,4.2272 h -2.758 C 27.2464,62.0455 26.1895,53.5223 30.2402,41.7349 Z m 2.2535,34.5367 c -0.5053,-1.1621 -0.9924,-2.3198 -1.451,-3.482 h 14.1958 c 1.8398,0 2.7726,-0.8376 2.7726,-2.4893 v -4.8767 -5.1592 h 10.7915 c 0.7553,0 1.3672,-0.612 1.3672,-1.3672 0,-0.7553 -0.6119,-1.3672 -1.3672,-1.3672 H 48.021 c 0.0175,-0.7766 0.0672,-1.4117 0.2096,-1.7868 0.0691,-0.1825 0.1289,-0.34 0.8797,-0.34 l 4.9088,-0.0051 c 3.0743,-0.0029 5.2737,-0.7467 6.7238,-2.2739 0.0671,-0.0708 0.1306,-0.1449 0.1942,-0.2188 h 8.6964 9.7736 v 3.7576 c 0,0.47 -0.3961,0.867 -0.865,0.867 H 64.9313 c -0.7553,0 -1.3672,0.6119 -1.3672,1.3672 0,0.7552 0.6119,1.3672 1.3672,1.3672 h 12.8074 c 1.0807,2.0057 2.0526,4.5015 1.9949,8.4446 -2.7049,-3.7572 -7.0837,-6.1731 -12.0534,-6.1731 -3.9911,0 -7.7361,1.5655 -10.5454,4.4084 -2.4928,2.5224 -3.99,5.7961 -4.2981,9.3319 z m 35.357,9.9756 c -4.274,0 -7.8787,-3.0795 -8.7508,-7.2363 h 17.5015 c -0.8723,4.1564 -4.4769,7.2363 -8.7507,7.2363 z M 78.1545,76.2765 H 57.5472 55.583 c 0.6712,-6.182 5.8402,-11.0062 12.0972,-11.0062 5.4934,0 10.1067,3.6223 11.6344,8.6931 0.005,0.0161 0.0099,0.0321 0.0154,0.048 0.216,0.7275 0.3686,1.4847 0.4511,2.2651 z M 91.2661,47.9493 c 0,1.2252 -0.9955,2.2218 -2.2191,2.2218 H 71.0005 v -7.0604 h 20.2656 z m 0,-7.573 H 71.0005 v -2.9077 h 20.2656 z m 0,-5.6421 H 71.0005 v -2.7803 c 0,-1.2252 0.9955,-2.2218 2.219,-2.2218 H 89.047 c 1.2236,0 2.2191,0.9968 2.2191,2.2218 z" />
  </mask>
  <g
     transform="translate(0.29615296,2.5173004)"
     id="g22">
    <path
       d="M 89.047,26.9977 H 73.2195 c -2.7312,0 -4.9534,2.2233 -4.9534,4.9562 V 50.1711 H 62.346 c 0.329,-1.1961 0.451,-2.6068 0.371,-4.2485 v -2e-4 c -0.1285,-6.9379 -1.3875,-12.7851 -3.7421,-17.3792 -1.8284,-3.5669 -3.9621,-5.7054 -5.7931,-6.9838 2.1491,-2.2095 3.3916,-5.3528 3.3916,-8.978 0,-6.52262 -5.2032,-11.828959 -11.5985,-11.828959 -6.3954,0 -11.5985,5.306339 -11.5985,11.828959 0,0.7552 0.6121,1.3672 1.3672,1.3672 h 0.9289 c -0.0855,0.5158 -0.1311,1.0416 -0.1311,1.5755 0,4.5967 3.2846,8.4385 7.6271,9.2994 -0.4551,1.6903 -0.6814,3.6832 -0.6805,5.9473 l -3.4099,2.9329 -8.297,0.671 -9.5709,-3.1638 c -0.8772,-0.2917 -1.8714,-0.6213 -2.734,7e-4 -0.85,0.6134 -0.85,1.6873 -0.85,2.04 v 7.1158 c 0,0.7552 0.6121,1.3672 1.3671,1.3672 h 1.6277 l -2.4965,8.6268 c -0.2098,0.7251 0.208,1.4835 0.9334,1.6933 0.7257,0.2109 1.4835,-0.208 1.6935,-0.9332 l 2.7165,-9.3869 h 3.8868 c -4.8344,14.7423 -2.0759,24.5828 2.164,34.5416 H 27.061 L 16.8248,64.8308 18.9893,57.3532 c 0.21,-0.7254 -0.2078,-1.4835 -0.9331,-1.6933 -0.7254,-0.2099 -1.4835,0.208 -1.6935,0.9331 l -2.0703,7.1526 C 7.88922,63.6388 2.16161,68.0535 0.701994,74.4051 0.53301,75.1408 0.992203,75.8744 1.72775,76.0436 l 1.94086,0.4466 c -0.49583,5.1501 2.89571,10.0091 8.06809,11.1996 0.7855,0.181 1.5777,0.2704 2.3645,0.2704 1.9403,0 3.8465,-0.544 5.5325,-1.6007 1.9788,-1.24 3.4532,-3.0629 4.2511,-5.2172 l 1.5314,0.3523 c 0.4563,0.1056 0.8891,0.159 1.3215,-0.0738 0.4023,-0.2166 0.6697,-0.6076 0.77,-1.0489 0.0962,-0.4475 0.1695,-0.9023 0.2203,-1.3614 h 28.594 c 0.9144,5.6852 5.7515,9.9707 11.5285,9.9707 5.777,0 10.6143,-4.2855 11.5287,-9.9707 h 1.0434 c 0,0 0.2071,0.0024 0.2543,0.0024 0.391,0 0.9558,-0.0434 1.4195,-0.5151 0.2321,-0.2361 0.5044,-0.6585 0.4835,-1.3295 -0.0385,-1.2839 -0.2312,-2.5244 -0.56,-3.7034 1.089,-6.6114 0.0412,-10.6381 -1.5121,-13.7893 0.982,-0.6437 1.6331,-1.7528 1.6331,-3.0128 v -3.7576 h 6.9058 c 2.7312,0 4.9534,-2.2232 4.9534,-4.9561 V 31.9537 c 4e-4,-2.7327 -2.2216,-4.956 -4.9531,-4.956 z M 18.1818,84.0429 c -1.7502,1.0968 -3.821,1.4456 -5.8314,0.9827 h -10e-5 C 8.6501,84.174 6.18151,80.781 6.36143,77.1122 L 21.1914,80.5254 C 20.5778,81.97 19.5397,83.192 18.1818,84.0429 Z M 25.0228,78.5986 3.75575,73.7048 C 5.39692,69.2105 9.81349,66.2355 14.6411,66.4915 l 10.4182,11.6486 c -0.0091,0.1537 -0.0212,0.3064 -0.0365,0.4585 z m 20.651,-23.8247 c -0.3969,1.0467 -0.3969,2.3372 -0.3969,4.1235 v 5.1592 h -5.0063 v -7.078 c 0,-8.0023 4.3674,-9.4284 6.3274,-9.6637 h 13.4037 c -0.0539,1.8162 -0.4637,3.1072 -1.2417,3.9266 -0.9068,0.9548 -2.4582,1.42 -4.7435,1.4222 l -4.9074,0.0051 c -1.75,2e-4 -2.9058,0.7082 -3.4353,2.1051 z m -0.3969,12.0169 v 3.2645 c -0.0124,0 -0.0251,0 -0.0383,0 h -9.7112 c 0.1092,-1.0125 0.4246,-1.796 0.9425,-2.3381 0.7703,-0.8061 1.8553,-0.9264 2.4336,-0.9264 z M 59.9414,44.5807 H 47.5078 c -0.4993,-1.5712 -0.9444,-3.2916 -1.3105,-5.0599 l 3.7802,-2.4536 c 2.0635,-1.3401 3.1371,-3.2335 2.9453,-5.1952 -0.1699,-1.7388 -1.3521,-3.2922 -3.0117,-3.957 -1.5155,-0.607 -3.1469,-0.4163 -4.5886,0.5055 0.1188,-1.3077 0.3402,-2.4751 0.6603,-3.4661 0.5827,-0.0601 1.1615,-0.1741 1.7299,-0.3412 1.157,-0.2687 2.2262,-0.6969 3.1914,-1.2648 2.6332,1.5732 8.4246,6.6759 9.0373,21.2323 z M 36.2108,11.2144 c 0.6448,-4.36849 4.3293,-7.7274 8.7641,-7.7274 4.8876,0 8.8641,4.07988 8.8641,9.0945 0,4.0786 -1.9558,7.3659 -5.1095,8.8126 v -7.1938 c 0,-1.2456 -0.4767,-2.7736 -2.7469,-2.9803 -0.0412,-0.0038 -0.0826,-0.0056 -0.124,-0.0056 z m 2.0652,4.3099 c 0,-0.5396 0.0614,-1.0666 0.1823,-1.5756 h 7.3332 c 0.0844,0.0091 0.146,0.019 0.1902,0.0279 0.0071,0.0507 0.0133,0.1236 0.0133,0.2237 v 7.9982 c -0.3258,0.048 -0.6535,0.0722 -0.9811,0.0724 -0.0031,0 -0.0062,0 -0.0091,0 C 41.294,22.2674 38.276,19.2423 38.276,15.5243 Z m -1.7724,21.1313 3.2382,-0.262 c 0.2886,-0.0231 0.5622,-0.1374 0.7819,-0.3261 l 5.8442,-5.0267 10e-4,-9e-4 c 0.5651,-0.4869 1.1683,-0.7367 1.7556,-0.7367 0.2614,0 0.5197,0.0496 0.77,0.1499 0.7224,0.2893 1.2354,0.9506 1.3072,1.6845 0.0903,0.9237 -0.5182,1.86 -1.7128,2.6358 l -6.5124,4.227 h -5.4726 v -2.3448 z m -5.7779,0.4674 3.0435,-0.2461 v 2.1238 h -3.5366 c -0.4585,0 -0.5703,-0.3809 -0.5834,-0.7005 -0.0075,-0.1812 0.0097,-1.0897 1.0765,-1.1772 z m -3.2359,-0.9439 c -0.4118,0.6752 -0.6041,1.465 -0.5726,2.233 0.0082,0.1989 0.0336,0.3905 0.0689,0.5772 0,0.0038 -0.0022,0.0076 -0.0014,0.0113 h -6.6238 v -5.1904 l 7.1342,2.3583 c -0.0022,0.0036 -0.0033,0.0071 -0.0053,0.0106 z m 2.7504,5.5558 H 42.381 c 0.2642,0 0.5228,-0.0765 0.7443,-0.2203 l 0.6189,-0.4018 c 0.2977,1.3158 0.6368,2.5962 1.0061,3.8055 -2.7884,0.8231 -7.2142,3.4829 -7.2142,12.0601 v 7.2153 c -0.9592,0.1936 -2.094,0.6409 -3.0432,1.6342 -1.0006,1.0471 -1.5721,2.4659 -1.7092,4.2272 h -2.758 C 27.2464,62.0455 26.1895,53.5223 30.2402,41.7349 Z m 2.2535,34.5367 c -0.5053,-1.1621 -0.9924,-2.3198 -1.451,-3.482 h 14.1958 c 1.8398,0 2.7726,-0.8376 2.7726,-2.4893 v -4.8767 -5.1592 h 10.7915 c 0.7553,0 1.3672,-0.612 1.3672,-1.3672 0,-0.7553 -0.6119,-1.3672 -1.3672,-1.3672 H 48.021 c 0.0175,-0.7766 0.0672,-1.4117 0.2096,-1.7868 0.0691,-0.1825 0.1289,-0.34 0.8797,-0.34 l 4.9088,-0.0051 c 3.0743,-0.0029 5.2737,-0.7467 6.7238,-2.2739 0.0671,-0.0708 0.1306,-0.1449 0.1942,-0.2188 h 8.6964 9.7736 v 3.7576 c 0,0.47 -0.3961,0.867 -0.865,0.867 H 64.9313 c -0.7553,0 -1.3672,0.6119 -1.3672,1.3672 0,0.7552 0.6119,1.3672 1.3672,1.3672 h 12.8074 c 1.0807,2.0057 2.0526,4.5015 1.9949,8.4446 -2.7049,-3.7572 -7.0837,-6.1731 -12.0534,-6.1731 -3.9911,0 -7.7361,1.5655 -10.5454,4.4084 -2.4928,2.5224 -3.99,5.7961 -4.2981,9.3319 z m 35.357,9.9756 c -4.274,0 -7.8787,-3.0795 -8.7508,-7.2363 h 17.5015 c -0.8723,4.1564 -4.4769,7.2363 -8.7507,7.2363 z M 78.1545,76.2765 H 57.5472 55.583 c 0.6712,-6.182 5.8402,-11.0062 12.0972,-11.0062 5.4934,0 10.1067,3.6223 11.6344,8.6931 0.005,0.0161 0.0099,0.0321 0.0154,0.048 0.216,0.7275 0.3686,1.4847 0.4511,2.2651 z M 91.2661,47.9493 c 0,1.2252 -0.9955,2.2218 -2.2191,2.2218 H 71.0005 v -7.0604 h 20.2656 z m 0,-7.573 H 71.0005 v -2.9077 h 20.2656 z m 0,-5.6421 H 71.0005 v -2.7803 c 0,-1.2252 0.9955,-2.2218 2.219,-2.2218 H 89.047 c 1.2236,0 2.2191,0.9968 2.2191,2.2218 z"
       fill="#000000"
       id="path2" />
    <g
       mask="url(#mask0)"
       id="g9">
      <path
         d="m 30.8774,34.4631 4.5783,-9.974 C 31.9402,22.5814 24.6804,17.8342 23.7648,14.1061 22.6202,9.44606 24.9093,5.11311 26.3809,1.27081 c 1.4715,-3.8423 11.3639,-4.66017 12.8355,-5.3142 1.1773,-0.52323 8.6115,0.70856 12.1815,1.38985 l 3.5972,3.92435 c 1.8258,2.2891 5.5593,6.99812 5.8863,7.52135 0.4088,0.65404 1.3081,9.07474 1.3081,9.97404 0,0.7194 1.0901,19.3759 1.6351,28.6142 l -2.9432,5.4775 -2.0438,2.8614 -7.9302,0.4088 -2.9432,1.1446 v 3.1884 l 2.2891,3.352 -0.981,9.1565 -3.9243,0.4088 -14.4706,-0.4088 -0.8993,-2.8614 h 2.2892 L 34.0659,53.5937 30.8774,42.4751 26.7897,38.9596 24.9093,37.3245 26.3809,36.507 Z"
         fill="#f58971"
         id="path7" />
    </g>
  </g>
</svg>
