<?xml version="1.0" encoding="UTF-8" standalone="no"?>
<svg
   xmlns:dc="http://purl.org/dc/elements/1.1/"
   xmlns:cc="http://creativecommons.org/ns#"
   xmlns:rdf="http://www.w3.org/1999/02/22-rdf-syntax-ns#"
   xmlns:svg="http://www.w3.org/2000/svg"
   xmlns="http://www.w3.org/2000/svg"
   xmlns:sodipodi="http://sodipodi.sourceforge.net/DTD/sodipodi-0.dtd"
   xmlns:inkscape="http://www.inkscape.org/namespaces/inkscape"
   inkscape:version="1.0 (4035a4fb49, 2020-05-01)"
   sodipodi:docname="icon-adv-2.svg"
   id="svg11"
   version="1.1"
   fill="none"
   viewBox="0 0 95 95"
   height="95"
   width="95">
  <metadata
     id="metadata17">
    <rdf:RDF>
      <cc:Work
         rdf:about="">
        <dc:format>image/svg+xml</dc:format>
        <dc:type
           rdf:resource="http://purl.org/dc/dcmitype/StillImage" />
        <dc:title></dc:title>
      </cc:Work>
    </rdf:RDF>
  </metadata>
  <defs
     id="defs15" />
  <sodipodi:namedview
     inkscape:current-layer="svg11"
     inkscape:window-maximized="1"
     inkscape:window-y="-8"
     inkscape:window-x="-8"
     inkscape:cy="70.160553"
     inkscape:cx="55.768597"
     inkscape:zoom="3.4150043"
     showgrid="false"
     id="namedview13"
     inkscape:window-height="1017"
     inkscape:window-width="1920"
     inkscape:pageshadow="2"
     inkscape:pageopacity="0"
     guidetolerance="10"
     gridtolerance="10"
     objecttolerance="10"
     borderopacity="1"
     bordercolor="#666666"
     pagecolor="#ffffff" />
  <mask
     height="88"
     width="70"
     y="0"
     x="0"
     maskUnits="userSpaceOnUse"
     mask-type="alpha"
     id="mask0">
    <path
       id="path4"
       fill="#f58971"
       d="m 17.5001,68.9909 v 16.6817 c 0,0.3845 0.1536,0.7533 0.4271,1.0253 0.2735,0.2719 0.6444,0.4247 1.0312,0.4247 h 49.5833 c 0.3867,0 0.7577,-0.1528 1.0312,-0.4247 C 69.8464,86.4259 70,86.0571 70,85.6726 v -34.8 C 69.999,49.6827 69.7044,48.5112 69.1421,47.4609 L 58.3333,27.3101 V 1.57256 c 0,-0.38457 -0.1536,-0.753379 -0.4271,-1.025306 C 57.6327,0.275326 57.2618,0.122559 56.875,0.122559 H 18.9584 c -0.3868,0 -0.7577,0.152767 -1.0312,0.424695 C 17.6537,0.819181 17.5001,1.18799 17.5001,1.57256 V 6.66061 L 1.02273,11.7887 c -0.182776,0.0569 -0.352495,0.149 -0.499465,0.2711 -0.14697,0.1221 -0.268312,0.2718 -0.357097,0.4405 -0.0887846,0.1688 -0.1432741,0.3532 -0.16035591,0.5429 -0.01708179,0.1897 0.0035783,0.3808 0.06080041,0.5625 z m -1.8585,-49.5958 -0.8715,-2.7688 2.73,-0.8497 v 24.0841 l -5.5975,-17.7824 2.7831,-0.8664 c 0.369,-0.1149 0.6771,-0.3709 0.8563,-0.7116 0.1793,-0.3407 0.2151,-0.7383 0.0996,-1.1052 z m 51.4417,31.4775 v 33.35 h -8.75 c -3.4319,-0.004 -6.7261,-1.3427 -9.1782,-3.7301 -2.4522,-2.3874 -3.8677,-5.6339 -3.9438,-9.0453 0.0731,-0.3773 -0.0073,-0.7681 -0.2237,-1.0865 L 35.5287,56.4398 c -0.3274,-0.4731 -0.5573,-1.0061 -0.6765,-1.568 -0.1192,-0.562 -0.1253,-1.1419 -0.0179,-1.7062 0.1074,-0.5643 0.3261,-1.1019 0.6435,-1.5818 0.3174,-0.4798 0.7273,-0.8924 1.2059,-1.2139 0.4786,-0.3216 1.0165,-0.5457 1.5827,-0.6595 0.5662,-0.1137 1.1494,-0.1149 1.7161,-0.0034 0.5666,0.1115 1.1054,0.3335 1.5853,0.6531 0.4799,0.3197 0.8914,0.7306 1.2108,1.2092 0.0086,0.0125 0.0182,0.025 0.0264,0.0373 l 8.514,11.7153 c 0.135,0.1858 0.3125,0.3372 0.5178,0.4416 0.2053,0.1044 0.4326,0.1589 0.6632,0.1591 h 4.375 c 0.3868,0 0.7577,-0.1528 1.0312,-0.4247 0.2735,-0.272 0.4271,-0.6408 0.4271,-1.0253 v -29 l 8.2354,15.3529 c 0.3372,0.6303 0.5139,1.3332 0.5146,2.0471 z m -37.9166,23.2 H 26.25 v -60.9 h 2.9167 c 0.3868,0 0.7577,-0.1528 1.0312,-0.4247 0.2735,-0.272 0.4271,-0.6408 0.4271,-1.0253 V 8.82256 h 14.5834 v 2.90004 c 0,0.3845 0.1536,0.7533 0.4271,1.0253 0.2735,0.2719 0.6444,0.4247 1.0312,0.4247 h 2.9167 V 55.9838 L 45.181,49.9259 c -0.1719,-0.2498 -0.3593,-0.4888 -0.5611,-0.7156 1.1256,-1.3355 1.8219,-2.9763 1.9986,-4.7098 0.1767,-1.7336 -0.1744,-3.4799 -1.0076,-5.0128 -0.8332,-1.5329 -2.1103,-2.7816 -3.6657,-3.5843 -1.5553,-0.8028 -3.3173,-1.1226 -5.0577,-0.9179 -1.7403,0.2046 -3.3787,0.9242 -4.7028,2.0655 -1.3242,1.1413 -2.2731,2.6517 -2.7238,4.3356 -0.4506,1.6838 -0.3823,3.4634 0.1962,5.1081 0.5785,1.6448 1.6404,3.0789 3.0483,4.1165 -0.6161,1.1627 -0.9037,2.4697 -0.8322,3.7819 0.0714,1.3123 0.4991,2.5807 1.2378,3.6706 l 9.1858,13.5176 c 0.059,2.3824 0.6579,4.7209 1.752,6.8413 H 30.625 v -2.9 c 0,-0.3846 -0.1536,-0.7534 -0.4271,-1.0253 -0.2735,-0.272 -0.6444,-0.4247 -1.0312,-0.4247 z m 5.9039,-26.0754 c -0.1743,0.1171 -0.3413,0.242 -0.5031,0.3718 -0.9675,-0.6747 -1.706,-1.6256 -2.1179,-2.7268 -0.4118,-1.1013 -0.4776,-2.3009 -0.1886,-3.4401 0.2889,-1.1393 0.9191,-2.1644 1.807,-2.9396 0.8879,-0.7753 1.9916,-1.2642 3.1651,-1.402 1.1735,-0.1377 2.3615,0.0821 3.4065,0.6305 1.0451,0.5483 1.898,1.3993 2.4459,2.4403 0.5479,1.041 0.7649,2.2229 0.6223,3.3892 -0.1426,1.1663 -0.6381,2.2621 -1.4208,3.1422 -1.1457,-0.5428 -2.414,-0.779 -3.6796,-0.6853 -1.2656,0.0938 -2.4847,0.5142 -3.5368,1.2198 z M 20.4167,3.02256 h 35 V 61.0226 H 53.2454 L 52.5,59.9969 V 11.7226 c 0,-0.3846 -0.1536,-0.7534 -0.4271,-1.0253 -0.2735,-0.272 -0.6444,-0.4247 -1.0312,-0.4247 H 48.125 V 7.37256 C 48.125,6.98799 47.9714,6.61918 47.6979,6.34725 47.4244,6.07533 47.0535,5.92256 46.6667,5.92256 h -17.5 c -0.3868,0 -0.7577,0.15277 -1.0312,0.42469 -0.2735,0.27193 -0.4271,0.64074 -0.4271,1.02531 v 2.90004 h -2.9167 c -0.3868,0 -0.7577,0.1527 -1.0312,0.4247 -0.2735,0.2719 -0.4271,0.6407 -0.4271,1.0253 v 63.8 c 0,0.3845 0.1536,0.7533 0.4271,1.0253 0.2735,0.2719 0.6444,0.4247 1.0312,0.4247 h 2.9167 v 2.9 c 0,0.3845 0.1536,0.7533 0.4271,1.0253 0.2735,0.2719 0.6444,0.4247 1.0312,0.4247 H 45.972 c 0.9171,1.1018 1.978,2.0771 3.1545,2.9 H 20.4167 Z m -2.9166,6.6767 v 3.03834 l -4.993,1.554 c -0.3691,0.1149 -0.6772,0.3708 -0.8565,0.7115 -0.1793,0.3408 -0.2151,0.7384 -0.0996,1.1053 l 0.8715,2.769 -2.78303,0.8662 C 9.45671,19.8005 9.287,19.8926 9.14005,20.0147 8.9931,20.1368 8.87178,20.2865 8.78302,20.4553 8.69425,20.624 8.63978,20.8084 8.62271,20.9981 8.60564,21.1878 8.6263,21.3789 8.68353,21.5606 l 8.81657,28.0091 v 9.7118 L 3.2857,14.1232 Z" />
  </mask>
  <g
     transform="translate(12.58565,4.0995556)"
     id="g22">
    <path
       d="m 17.5001,68.9909 v 16.6817 c 0,0.3845 0.1536,0.7533 0.4271,1.0253 0.2735,0.2719 0.6444,0.4247 1.0312,0.4247 h 49.5833 c 0.3867,0 0.7577,-0.1528 1.0312,-0.4247 C 69.8464,86.4259 70,86.0571 70,85.6726 v -34.8 C 69.999,49.6827 69.7044,48.5112 69.1421,47.4609 L 58.3333,27.3101 V 1.57256 c 0,-0.38457 -0.1536,-0.753379 -0.4271,-1.025306 C 57.6327,0.275326 57.2618,0.122559 56.875,0.122559 H 18.9584 c -0.3868,0 -0.7577,0.152767 -1.0312,0.424695 C 17.6537,0.819181 17.5001,1.18799 17.5001,1.57256 V 6.66061 L 1.02273,11.7887 c -0.182776,0.0569 -0.352495,0.149 -0.499465,0.2711 -0.14697,0.1221 -0.268312,0.2718 -0.357097,0.4405 -0.0887846,0.1688 -0.1432741,0.3532 -0.16035591,0.5429 -0.01708179,0.1897 0.0035783,0.3808 0.06080041,0.5625 z m -1.8585,-49.5958 -0.8715,-2.7688 2.73,-0.8497 v 24.0841 l -5.5975,-17.7824 2.7831,-0.8664 c 0.369,-0.1149 0.6771,-0.3709 0.8563,-0.7116 0.1793,-0.3407 0.2151,-0.7383 0.0996,-1.1052 z m 51.4417,31.4775 v 33.35 h -8.75 c -3.4319,-0.004 -6.7261,-1.3427 -9.1782,-3.7301 -2.4522,-2.3874 -3.8677,-5.6339 -3.9438,-9.0453 0.0731,-0.3773 -0.0073,-0.7681 -0.2237,-1.0865 L 35.5287,56.4398 c -0.3274,-0.4731 -0.5573,-1.0061 -0.6765,-1.568 -0.1192,-0.562 -0.1253,-1.1419 -0.0179,-1.7062 0.1074,-0.5643 0.3261,-1.1019 0.6435,-1.5818 0.3174,-0.4798 0.7273,-0.8924 1.2059,-1.2139 0.4786,-0.3216 1.0165,-0.5457 1.5827,-0.6595 0.5662,-0.1137 1.1494,-0.1149 1.7161,-0.0034 0.5666,0.1115 1.1054,0.3335 1.5853,0.6531 0.4799,0.3197 0.8914,0.7306 1.2108,1.2092 0.0086,0.0125 0.0182,0.025 0.0264,0.0373 l 8.514,11.7153 c 0.135,0.1858 0.3125,0.3372 0.5178,0.4416 0.2053,0.1044 0.4326,0.1589 0.6632,0.1591 h 4.375 c 0.3868,0 0.7577,-0.1528 1.0312,-0.4247 0.2735,-0.272 0.4271,-0.6408 0.4271,-1.0253 v -29 l 8.2354,15.3529 c 0.3372,0.6303 0.5139,1.3332 0.5146,2.0471 z m -37.9166,23.2 H 26.25 v -60.9 h 2.9167 c 0.3868,0 0.7577,-0.1528 1.0312,-0.4247 0.2735,-0.272 0.4271,-0.6408 0.4271,-1.0253 V 8.82256 h 14.5834 v 2.90004 c 0,0.3845 0.1536,0.7533 0.4271,1.0253 0.2735,0.2719 0.6444,0.4247 1.0312,0.4247 h 2.9167 V 55.9838 L 45.181,49.9259 c -0.1719,-0.2498 -0.3593,-0.4888 -0.5611,-0.7156 1.1256,-1.3355 1.8219,-2.9763 1.9986,-4.7098 0.1767,-1.7336 -0.1744,-3.4799 -1.0076,-5.0128 -0.8332,-1.5329 -2.1103,-2.7816 -3.6657,-3.5843 -1.5553,-0.8028 -3.3173,-1.1226 -5.0577,-0.9179 -1.7403,0.2046 -3.3787,0.9242 -4.7028,2.0655 -1.3242,1.1413 -2.2731,2.6517 -2.7238,4.3356 -0.4506,1.6838 -0.3823,3.4634 0.1962,5.1081 0.5785,1.6448 1.6404,3.0789 3.0483,4.1165 -0.6161,1.1627 -0.9037,2.4697 -0.8322,3.7819 0.0714,1.3123 0.4991,2.5807 1.2378,3.6706 l 9.1858,13.5176 c 0.059,2.3824 0.6579,4.7209 1.752,6.8413 H 30.625 v -2.9 c 0,-0.3846 -0.1536,-0.7534 -0.4271,-1.0253 -0.2735,-0.272 -0.6444,-0.4247 -1.0312,-0.4247 z m 5.9039,-26.0754 c -0.1743,0.1171 -0.3413,0.242 -0.5031,0.3718 -0.9675,-0.6747 -1.706,-1.6256 -2.1179,-2.7268 -0.4118,-1.1013 -0.4776,-2.3009 -0.1886,-3.4401 0.2889,-1.1393 0.9191,-2.1644 1.807,-2.9396 0.8879,-0.7753 1.9916,-1.2642 3.1651,-1.402 1.1735,-0.1377 2.3615,0.0821 3.4065,0.6305 1.0451,0.5483 1.898,1.3993 2.4459,2.4403 0.5479,1.041 0.7649,2.2229 0.6223,3.3892 -0.1426,1.1663 -0.6381,2.2621 -1.4208,3.1422 -1.1457,-0.5428 -2.414,-0.779 -3.6796,-0.6853 -1.2656,0.0938 -2.4847,0.5142 -3.5368,1.2198 z M 20.4167,3.02256 h 35 V 61.0226 H 53.2454 L 52.5,59.9969 V 11.7226 c 0,-0.3846 -0.1536,-0.7534 -0.4271,-1.0253 -0.2735,-0.272 -0.6444,-0.4247 -1.0312,-0.4247 H 48.125 V 7.37256 C 48.125,6.98799 47.9714,6.61918 47.6979,6.34725 47.4244,6.07533 47.0535,5.92256 46.6667,5.92256 h -17.5 c -0.3868,0 -0.7577,0.15277 -1.0312,0.42469 -0.2735,0.27193 -0.4271,0.64074 -0.4271,1.02531 v 2.90004 h -2.9167 c -0.3868,0 -0.7577,0.1527 -1.0312,0.4247 -0.2735,0.2719 -0.4271,0.6407 -0.4271,1.0253 v 63.8 c 0,0.3845 0.1536,0.7533 0.4271,1.0253 0.2735,0.2719 0.6444,0.4247 1.0312,0.4247 h 2.9167 v 2.9 c 0,0.3845 0.1536,0.7533 0.4271,1.0253 0.2735,0.2719 0.6444,0.4247 1.0312,0.4247 H 45.972 c 0.9171,1.1018 1.978,2.0771 3.1545,2.9 H 20.4167 Z m -2.9166,6.6767 v 3.03834 l -4.993,1.554 c -0.3691,0.1149 -0.6772,0.3708 -0.8565,0.7115 -0.1793,0.3408 -0.2151,0.7384 -0.0996,1.1053 l 0.8715,2.769 -2.78303,0.8662 C 9.45671,19.8005 9.287,19.8926 9.14005,20.0147 8.9931,20.1368 8.87178,20.2865 8.78302,20.4553 8.69425,20.624 8.63978,20.8084 8.62271,20.9981 8.60564,21.1878 8.6263,21.3789 8.68353,21.5606 l 8.81657,28.0091 v 9.7118 L 3.2857,14.1232 Z"
       fill="#000000"
       id="path2" />
    <g
       mask="url(#mask0)"
       id="g9">
      <path
         d="m 44,78.4729 -3,-3.5 -3.3744,-4.2674 -4.1269,-2.1482 c -0.7726,-1.2437 -2.363,-3.8442 -2.5439,-4.2965 -0.1809,-0.4523 -1.0553,-5.0879 -1.4699,-7.3493 l 2.7136,-5.8228 2.5439,-2.9397 V 45.2658 L 41,46.4729 l 4,3 1,1 2,3.5 4.5,6 H 55 v -32.5 h 3.5 l 2,-4 6,4 12.5,18.5 -5.5,44 -17.5,-1 -7,-4.5 -2.5,-2.5 z"
         fill="#f58971"
         id="path7" />
    </g>
  </g>
</svg>
