<svg width="77" height="80" viewBox="0 0 77 80" fill="none" xmlns="http://www.w3.org/2000/svg">
<path d="M42.8398 34.3466C42.8398 31.3192 42.6934 28.8534 42.4004 26.9491C42.1562 25.0448 41.5703 23.5555 40.6426 22.4813C39.7148 21.4071 38.3721 20.6747 36.6143 20.2841C34.8564 19.8934 32.5127 19.6981 29.583 19.6981C27.0928 19.6981 24.8955 19.6737 22.9912 19.6249C21.0869 19.5272 19.2559 19.3807 17.498 19.1854C15.7402 18.9413 13.9336 18.5995 12.0781 18.16C10.2715 17.6718 8.19629 17.0126 5.85254 16.1825C6.63379 13.5458 7.41504 10.9579 8.19629 8.41882C9.02637 5.83093 9.90527 3.29187 10.833 0.801636C13.3232 1.48523 15.4473 2.02234 17.2051 2.41296C19.0117 2.80359 20.7207 3.12097 22.332 3.36511C23.9922 3.56042 25.7256 3.6825 27.5322 3.73132C29.3389 3.78015 31.5361 3.80457 34.124 3.80457H37.7861C40.8623 3.80457 43.8896 4.14636 46.8682 4.82996C49.8467 5.51355 52.5322 6.8075 54.9248 8.71179C57.2686 10.5673 59.1729 13.1307 60.6377 16.4022C62.1025 19.6737 62.835 23.9462 62.835 29.2196V64.0829H76.3115V79.9764H0.359375V64.0829H42.8398V34.3466Z" fill="#F58971"/>
</svg>
