<svg width="48" height="64" viewBox="0 0 48 64" fill="none" xmlns="http://www.w3.org/2000/svg">
<path d="M39.3047 0.743652V21.3101C39.3047 24.0054 39.3242 26.2905 39.3633 28.1655C39.4414 30.0405 39.5781 31.7397 39.7734 33.2632C39.9688 34.7866 40.2422 36.2515 40.5938 37.6577C40.9453 39.0249 41.3945 40.5483 41.9414 42.228C42.6055 44.2983 43.2109 46.1733 43.7578 47.853C44.3047 49.5327 44.8125 51.1147 45.2812 52.5991C45.75 54.0835 46.1797 55.5679 46.5703 57.0522C46.9609 58.4976 47.3711 60.0405 47.8008 61.6812H33.2695C33.0742 60.978 32.8398 60.1772 32.5664 59.2788C32.293 58.3804 32 57.4429 31.6875 56.4663C31.4141 55.4897 31.1016 54.5132 30.75 53.5366C30.4375 52.521 30.1445 51.5444 29.8711 50.6069L28.9336 47.7358C28.4648 48.2827 27.918 48.9077 27.293 49.6108C26.707 50.2749 26.082 50.9585 25.418 51.6616C24.793 52.3647 24.168 53.0679 23.543 53.771C22.918 54.4351 22.3125 55.0405 21.7266 55.5874C20.6719 56.603 19.5195 57.5405 18.2695 58.3999C17.0195 59.2593 15.6133 60.0405 14.0508 60.7437C12.5273 61.4468 10.8086 62.0522 8.89453 62.5601C6.98047 63.1069 4.85156 63.5171 2.50781 63.7905C2.03906 61.7983 1.58984 59.8257 1.16016 57.8726C0.769531 55.9194 0.398438 53.9468 0.046875 51.9546C3.48438 51.2124 6.35547 50.2554 8.66016 49.0835C10.9648 47.8726 12.9375 46.3687 14.5781 44.5718L23.6602 34.6694V13.4585H10.3008V0.743652H39.3047Z" fill="#F58971"/>
</svg>
