<svg width="51" height="82" viewBox="0 0 51 82" fill="none" xmlns="http://www.w3.org/2000/svg">
<path d="M16.2129 0.4823V17.5917H49.4355C49.6699 18.451 49.8652 19.2128 50.0215 19.8768C50.2168 20.5409 50.373 21.1464 50.4902 21.6932C50.6855 22.6307 50.8027 23.5096 50.8418 24.33C50.8809 25.1503 50.9004 26.1073 50.9004 27.201V39.8573C50.9004 44.4667 49.9629 48.8221 48.0879 52.9237C46.252 57.0253 43.498 61.1268 39.8262 65.2284L24.8262 81.7518L13.459 72.0839L20.0801 64.5839C22.8926 61.4198 25.2363 58.8026 27.1113 56.7323C29.0254 54.6229 30.5488 52.7284 31.6816 51.0487C32.8535 49.369 33.6738 47.7675 34.1426 46.244C34.6504 44.6815 34.9043 42.8651 34.9043 40.7948V30.3065H0.216797V0.4823H16.2129Z" fill="#F58971"/>
</svg>
