<svg width="84" height="96" viewBox="0 0 84 96" fill="none" xmlns="http://www.w3.org/2000/svg">
<path d="M29.166 23.4142C26.1777 23.4142 23.541 23.3849 21.2559 23.3263C18.9707 23.2091 16.7734 23.0333 14.6641 22.799C12.5547 22.506 10.3867 22.0958 8.16016 21.5685C5.99219 20.9825 3.50195 20.1915 0.689453 19.1954C1.62695 16.0314 2.56445 12.9259 3.50195 9.87903C4.49805 6.77356 5.55273 3.72668 6.66602 0.738403C9.6543 1.55872 12.2031 2.20325 14.3125 2.672C16.4805 3.14075 18.5312 3.52161 20.4648 3.81458C22.457 4.04895 24.5371 4.19543 26.7051 4.25403C28.873 4.31262 31.5098 4.34192 34.6152 4.34192H53.4238C57.1152 4.34192 60.748 4.75208 64.3223 5.57239C67.8965 6.3927 71.1191 7.94543 73.9902 10.2306C76.8027 12.4572 79.0879 15.5333 80.8457 19.4591C82.6035 23.3849 83.4824 28.5118 83.4824 34.84V95.7482H59.4883V40.9923C59.4883 37.3595 59.3125 34.4005 58.9609 32.1154C58.668 29.8302 57.9648 28.0431 56.8516 26.754C55.7383 25.465 54.127 24.5861 52.0176 24.1173C49.9082 23.6486 47.0957 23.4142 43.5801 23.4142H29.166ZM1.56836 69.0294C1.56836 66.5099 1.59766 64.2247 1.65625 62.174C1.71484 60.0646 1.80273 58.0431 1.91992 56.1095C2.0957 54.1759 2.33008 52.2716 2.62305 50.3966C2.91602 48.5216 3.32617 46.5001 3.85352 44.3322C7.7793 44.7423 11.7051 45.2697 15.6309 45.9142C19.5566 46.5001 23.4824 47.2911 27.4082 48.2872C26.7051 51.5685 26.207 54.879 25.9141 58.2189C25.6797 61.5001 25.5625 65.3087 25.5625 69.6447V95.7482H1.56836V69.0294Z" fill="#F58971"/>
</svg>
