<svg width="72" height="80" viewBox="0 0 72 80" fill="none" xmlns="http://www.w3.org/2000/svg">
<path d="M24.2744 19.4698C21.7842 19.4698 19.5869 19.4454 17.6826 19.3966C15.7783 19.299 13.9473 19.1525 12.1895 18.9572C10.4316 18.713 8.625 18.3712 6.76953 17.9318C4.96289 17.4435 2.8877 16.7843 0.543945 15.9542C1.3252 13.3175 2.10645 10.7296 2.8877 8.19055C3.71777 5.60266 4.59668 3.0636 5.52441 0.573364C8.01465 1.25696 10.1387 1.79407 11.8965 2.18469C13.7031 2.57532 15.4121 2.8927 17.0234 3.13684C18.6836 3.33215 20.417 3.45422 22.2236 3.50305C24.0303 3.55188 26.2275 3.57629 28.8154 3.57629H71.0762V19.4698H56.2812V79.7482H36.2861V19.4698H24.2744Z" fill="#F58971"/>
</svg>
